<svg width="503" height="73" viewBox="0 0 503 73" fill="none" xmlns="http://www.w3.org/2000/svg">
<g clip-path="url(#clip0_187_2292)">
<mask id="mask0_187_2292" style="mask-type:luminance" maskUnits="userSpaceOnUse" x="0" y="0" width="503" height="73">
<path d="M0 0H503V73H0V0Z" fill="white"/>
</mask>
<g mask="url(#mask0_187_2292)">
<path d="M129.912 31.7014C129.37 31.7014 128.835 31.7209 128.3 31.7379C128.213 31.7425 128.128 31.7623 128.048 31.7963C127.906 31.8439 127.779 31.9255 127.677 32.0339C127.576 32.1422 127.503 32.2738 127.466 32.4168L125.173 40.3227C124.184 43.7221 124.552 46.8611 126.214 49.1654C127.737 51.2971 130.272 52.5478 133.349 52.6938L145.789 53.4384C146.159 53.4579 146.479 53.633 146.674 53.9226C146.776 54.0772 146.84 54.2529 146.862 54.4361C146.884 54.6193 146.862 54.805 146.8 54.9787C146.699 55.2611 146.519 55.509 146.28 55.6928C146.041 55.8767 145.753 55.9886 145.451 56.0153L132.526 56.7599C125.503 57.0811 117.949 62.7361 115.298 69.6322L114.366 72.0655C114.326 72.1664 114.311 72.2753 114.322 72.3831C114.333 72.4909 114.37 72.5946 114.43 72.6854C114.489 72.7763 114.57 72.8518 114.666 72.9057C114.761 72.9595 114.868 72.9902 114.977 72.9951H159.493C159.752 72.9961 160.004 72.9134 160.21 72.7596C160.417 72.6057 160.567 72.3893 160.637 72.1434C161.428 69.3388 161.826 66.4406 161.821 63.5294C161.821 45.9607 147.547 31.7209 129.932 31.7209" fill="white"/>
<path d="M210.863 45.956H218.235V66.0286H231.101V72.4696H210.863V45.956ZM238.725 59.2882V59.2104C238.725 51.594 244.872 45.4255 253.078 45.4255C261.281 45.4255 267.352 51.5283 267.352 59.1325V59.2104C267.352 66.8243 261.205 72.9952 252.999 72.9952C244.793 72.9952 238.725 66.8997 238.725 59.2882ZM259.837 59.2882V59.2104C259.837 55.3827 257.068 52.0515 252.999 52.0515C248.931 52.0515 246.28 55.3049 246.28 59.1325V59.2104C246.28 63.0356 249.047 66.3692 253.078 66.3692C257.107 66.3692 259.837 63.1134 259.837 59.2882ZM276.369 60.8407V45.9657H283.847V60.6996C283.847 64.5248 285.778 66.3376 288.742 66.3376C291.703 66.3376 293.636 64.5929 293.636 60.8821V45.956H301.112V60.6509C301.112 69.2138 296.218 72.9538 288.663 72.9538C281.108 72.9538 276.359 69.1262 276.359 60.8358M312.388 45.9633H322.642C332.13 45.9633 337.636 51.4164 337.636 59.0595V59.1374C337.636 66.778 332.052 72.4647 322.487 72.4647H312.388V45.956V45.9633ZM322.748 65.9556C327.157 65.9556 330.072 63.5344 330.072 59.2542V59.1763C330.072 54.9326 327.15 52.4725 322.748 52.4725H319.748V65.9556H322.748ZM348.345 45.956H369.601V52.3995H355.705V56.9011H368.27V62.9966H355.705V72.4696H348.345V45.956ZM379.849 45.956H387.219V66.0286H400.087V72.4696H379.849V45.956ZM419.332 45.7686H426.428L437.743 72.4647H429.848L427.905 67.7295H417.65L415.757 72.4647H408.007L419.322 45.7686H419.332ZM425.79 62.0136L422.826 54.4775L419.825 62.0136H425.79ZM447.234 45.9633H459.799C463.86 45.9633 466.676 47.0291 468.451 48.8395C470.017 50.3506 470.803 52.4043 470.803 55.0104V55.0883C470.803 59.1374 468.636 61.8286 465.334 63.2254L471.676 72.4647H463.169L457.819 64.4347H454.594V72.4647H447.224V45.956L447.234 45.9633ZM459.461 58.6896C461.966 58.6896 463.411 57.4803 463.411 55.5506V55.4752C463.411 53.3923 461.897 52.3362 459.422 52.3362H454.604V58.7018H459.468L459.461 58.6921V58.6896ZM481.433 45.956H502.808V52.2048H488.726V56.2149H501.486V62.016H488.726V66.2208H503.003V72.4696H481.433V45.956ZM194.73 62.3956C193.699 64.7219 191.525 66.3692 188.64 66.3692C184.621 66.3692 181.844 63.0356 181.844 59.2104V59.1301C181.844 55.3024 184.542 52.0491 188.563 52.0491C191.594 52.0491 193.904 53.9081 194.885 56.4461H202.645C201.4 50.1413 195.847 45.4231 188.632 45.4231C180.436 45.4231 174.28 51.594 174.28 59.2079V59.2858C174.28 66.8997 180.348 72.9928 188.556 72.9928C195.566 72.9928 201.052 68.457 202.499 62.3834H194.72L194.73 62.3956Z" fill="white"/>
<path d="M110.483 71.9731L111.306 69.114C112.297 65.7146 111.93 62.5756 110.271 60.2712C108.742 58.1396 106.21 56.8889 103.13 56.7429L44.7795 55.9983C44.598 55.995 44.4198 55.9495 44.2596 55.8653C44.0993 55.7812 43.9615 55.6608 43.8573 55.5141C43.7549 55.3597 43.6901 55.1841 43.6679 55.0009C43.6456 54.8177 43.6666 54.6319 43.7291 54.458C43.8301 54.1739 44.0125 53.9247 44.254 53.7407C44.4956 53.5567 44.786 53.4458 45.0902 53.4214L103.986 52.6768C110.978 52.358 118.533 46.7005 121.184 39.8045L124.542 31.0445C124.679 30.6731 124.713 30.2724 124.641 29.8838C120.814 12.7969 105.507 0 87.2066 0C70.3363 0 56.023 10.8575 50.887 25.9515C47.4291 23.3564 43.0984 22.1607 38.778 22.6081C30.6906 23.4111 24.1811 29.913 23.3773 37.9819C23.1692 39.9972 23.3194 42.0328 23.8212 43.9971C10.6051 44.3864 0.00262451 55.1856 0.00262451 68.457C0.00262451 69.6566 0.0889235 70.8392 0.263987 71.9926C0.298829 72.2631 0.432544 72.5118 0.640025 72.6919C0.847505 72.872 1.11448 72.9712 1.39081 72.9708H109.151C109.455 72.9659 109.748 72.8641 109.988 72.6808C110.228 72.4974 110.402 72.2424 110.483 71.9537" fill="white"/>
</g>
</g>
<defs>
<clipPath id="clip0_187_2292">
<rect width="503" height="73" fill="white"/>
</clipPath>
</defs>
</svg>
